<svg width="20" height="20" viewBox="0 0 20 20" fill="none" xmlns="http://www.w3.org/2000/svg">
<path d="M15.8345 19.3333H3.00118C2.38234 19.3333 1.78885 19.0875 1.35126 18.6499C0.913679 18.2123 0.667847 17.6188 0.667847 17V4.16666C0.667847 3.54782 0.913679 2.95433 1.35126 2.51674C1.78885 2.07916 2.38234 1.83332 3.00118 1.83332H7.66785V4.16666H3.00118V17H15.8345V12.3333H18.1678V17C18.1678 17.6188 17.922 18.2123 17.4844 18.6499C17.0468 19.0875 16.4534 19.3333 15.8345 19.3333ZM9.65118 11.9915L8.00618 10.3418L15.348 2.99999H11.1678V0.666656H19.3345V8.83332H17.0012V4.65082L9.65118 11.9915Z" fill="white"/>
</svg>
